{
	"asset":{
		"generator":"Khronos glTF Blender I/O v3.6.27",
		"version":"2.0"
	},
	"scene":0,
	"scenes":[
		{
			"extras":{
				"sb_state":{
					"action_preview":null,
					"action_preview_enabled":0,
					"_identifier":"da1a6dc8"
				}
			},
			"name":"Scene",
			"nodes":[
				0,
				1,
				2
			]
		}
	],
	"nodes":[
		{
			"extras":{
				"sb_props":{
					"animation":{}
				}
			},
			"mesh":0,
			"name":"Ship"
		},
		{
			"extras":{
				"sb_props":{
					"animation":{}
				}
			},
			"mesh":1,
			"name":"Cannon left",
			"translation":[
				1.9876538515090942,
				0.589587926864624,
				-1.9116735458374023
			]
		},
		{
			"extras":{
				"sb_props":{
					"animation":{}
				}
			},
			"mesh":2,
			"name":"Cannon right",
			"translation":[
				-2.012287139892578,
				0.589587926864624,
				-1.9116735458374023
			]
		}
	],
	"meshes":[
		{
			"name":"Circle",
			"primitives":[
				{
					"attributes":{
						"POSITION":0,
						"NORMAL":1,
						"TEXCOORD_0":2
					},
					"indices":3
				}
			]
		},
		{
			"name":"Cube.001",
			"primitives":[
				{
					"attributes":{
						"POSITION":4,
						"NORMAL":5,
						"TEXCOORD_0":6,
						"TANGENT":7
					},
					"indices":8
				}
			]
		},
		{
			"name":"Cube.002",
			"primitives":[
				{
					"attributes":{
						"POSITION":9,
						"NORMAL":10,
						"TEXCOORD_0":11,
						"TANGENT":12
					},
					"indices":13
				}
			]
		}
	],
	"accessors":[
		{
			"bufferView":0,
			"componentType":5126,
			"count":288,
			"max":[
				3.728078842163086,
				1.3566855192184448,
				3.1401710510253906
			],
			"min":[
				-3.728078842163086,
				0.0016317730769515038,
				-2.4380674362182617
			],
			"type":"VEC3"
		},
		{
			"bufferView":1,
			"componentType":5126,
			"count":288,
			"type":"VEC3"
		},
		{
			"bufferView":2,
			"componentType":5126,
			"count":288,
			"type":"VEC2"
		},
		{
			"bufferView":3,
			"componentType":5123,
			"count":924,
			"type":"SCALAR"
		},
		{
			"bufferView":4,
			"componentType":5126,
			"count":120,
			"max":[
				0.08630067110061646,
				0.08630076795816422,
				0.08495351672172546
			],
			"min":[
				-0.08630082756280899,
				-0.08630076795816422,
				-0.5079231262207031
			],
			"type":"VEC3"
		},
		{
			"bufferView":5,
			"componentType":5126,
			"count":120,
			"type":"VEC3"
		},
		{
			"bufferView":6,
			"componentType":5126,
			"count":120,
			"type":"VEC2"
		},
		{
			"bufferView":7,
			"componentType":5126,
			"count":120,
			"type":"VEC4"
		},
		{
			"bufferView":8,
			"componentType":5123,
			"count":180,
			"type":"SCALAR"
		},
		{
			"bufferView":9,
			"componentType":5126,
			"count":120,
			"max":[
				0.08630067110061646,
				0.08630076795816422,
				0.08495351672172546
			],
			"min":[
				-0.08630082756280899,
				-0.08630076795816422,
				-0.5079231262207031
			],
			"type":"VEC3"
		},
		{
			"bufferView":10,
			"componentType":5126,
			"count":120,
			"type":"VEC3"
		},
		{
			"bufferView":11,
			"componentType":5126,
			"count":120,
			"type":"VEC2"
		},
		{
			"bufferView":12,
			"componentType":5126,
			"count":120,
			"type":"VEC4"
		},
		{
			"bufferView":13,
			"componentType":5123,
			"count":180,
			"type":"SCALAR"
		}
	],
	"bufferViews":[
		{
			"buffer":0,
			"byteLength":3456,
			"byteOffset":0,
			"target":34962
		},
		{
			"buffer":0,
			"byteLength":3456,
			"byteOffset":3456,
			"target":34962
		},
		{
			"buffer":0,
			"byteLength":2304,
			"byteOffset":6912,
			"target":34962
		},
		{
			"buffer":0,
			"byteLength":1848,
			"byteOffset":9216,
			"target":34963
		},
		{
			"buffer":0,
			"byteLength":1440,
			"byteOffset":11064,
			"target":34962
		},
		{
			"buffer":0,
			"byteLength":1440,
			"byteOffset":12504,
			"target":34962
		},
		{
			"buffer":0,
			"byteLength":960,
			"byteOffset":13944,
			"target":34962
		},
		{
			"buffer":0,
			"byteLength":1920,
			"byteOffset":14904,
			"target":34962
		},
		{
			"buffer":0,
			"byteLength":360,
			"byteOffset":16824,
			"target":34963
		},
		{
			"buffer":0,
			"byteLength":1440,
			"byteOffset":17184,
			"target":34962
		},
		{
			"buffer":0,
			"byteLength":1440,
			"byteOffset":18624,
			"target":34962
		},
		{
			"buffer":0,
			"byteLength":960,
			"byteOffset":20064,
			"target":34962
		},
		{
			"buffer":0,
			"byteLength":1920,
			"byteOffset":21024,
			"target":34962
		},
		{
			"buffer":0,
			"byteLength":360,
			"byteOffset":22944,
			"target":34963
		}
	],
	"buffers":[
		{
			"byteLength":23304,
			"uri":"BossEnemy1Mesh-f4e12bbe477e6d526e5fc00cba54b1a9.bin"
		}
	]
}
