{
	"asset":{
		"generator":"Khronos glTF Blender I/O v3.6.27",
		"version":"2.0"
	},
	"scene":0,
	"scenes":[
		{
			"extras":{
				"sb_state":{
					"action_preview":null,
					"action_preview_enabled":0,
					"_identifier":"08e7250f"
				}
			},
			"name":"Scene",
			"nodes":[
				0,
				1
			]
		}
	],
	"nodes":[
		{
			"extras":{
				"sb_props":{
					"animation":{}
				}
			},
			"mesh":0,
			"name":"Circle",
			"rotation":[
				0,
				-1,
				0,
				1.6292068494294654e-07
			]
		},
		{
			"extras":{
				"sb_props":{
					"animation":{}
				}
			},
			"mesh":1,
			"name":"Cube",
			"scale":[
				0.2162555456161499,
				0.2162555456161499,
				0.2162555456161499
			],
			"translation":[
				0,
				-0.4509791433811188,
				0
			]
		}
	],
	"materials":[
		{
			"doubleSided":true,
			"name":"Material",
			"normalTexture":{
				"index":0
			},
			"pbrMetallicRoughness":{
				"baseColorTexture":{
					"index":1
				},
				"metallicFactor":0.40454545617103577
			}
		},
		{
			"doubleSided":true,
			"name":"Material",
			"normalTexture":{
				"index":2
			},
			"pbrMetallicRoughness":{
				"baseColorTexture":{
					"index":3
				},
				"metallicFactor":0.40454545617103577
			}
		}
	],
	"meshes":[
		{
			"name":"Circle",
			"primitives":[
				{
					"attributes":{
						"POSITION":0,
						"NORMAL":1,
						"TEXCOORD_0":2
					},
					"indices":3,
					"material":0
				}
			]
		},
		{
			"name":"Cube.001",
			"primitives":[
				{
					"attributes":{
						"POSITION":4,
						"NORMAL":5,
						"TEXCOORD_0":6
					},
					"indices":7,
					"material":1
				}
			]
		}
	],
	"textures":[
		{
			"sampler":0,
			"source":0
		},
		{
			"sampler":1,
			"source":1
		},
		{
			"sampler":0,
			"source":0
		},
		{
			"sampler":1,
			"source":1
		}
	],
	"images":[
		{
			"mimeType":"image/png",
			"name":"Enemy2_tex_n.png",
			"uri":"../../Recources/3DModel/Enemy2_tex_n.png"
		},
		{
			"mimeType":"image/png",
			"name":"Enemy2_tex",
			"uri":"../../Recources/3DModel/Enemy2_tex.png"
		}
	],
	"accessors":[
		{
			"bufferView":0,
			"componentType":5126,
			"count":352,
			"max":[
				3.4778964519500732,
				0.7038485407829285,
				1.7885336875915527
			],
			"min":[
				-3.4778964519500732,
				-0.32347559928894043,
				-2.411018133163452
			],
			"type":"VEC3"
		},
		{
			"bufferView":1,
			"componentType":5126,
			"count":352,
			"type":"VEC3"
		},
		{
			"bufferView":2,
			"componentType":5126,
			"count":352,
			"type":"VEC2"
		},
		{
			"bufferView":3,
			"componentType":5123,
			"count":588,
			"type":"SCALAR"
		},
		{
			"bufferView":4,
			"componentType":5126,
			"count":152,
			"max":[
				1,
				1,
				1
			],
			"min":[
				-1,
				-1,
				-2.8263800144195557
			],
			"type":"VEC3"
		},
		{
			"bufferView":5,
			"componentType":5126,
			"count":152,
			"type":"VEC3"
		},
		{
			"bufferView":6,
			"componentType":5126,
			"count":152,
			"type":"VEC2"
		},
		{
			"bufferView":7,
			"componentType":5123,
			"count":234,
			"type":"SCALAR"
		}
	],
	"bufferViews":[
		{
			"buffer":0,
			"byteLength":4224,
			"byteOffset":0,
			"target":34962
		},
		{
			"buffer":0,
			"byteLength":4224,
			"byteOffset":4224,
			"target":34962
		},
		{
			"buffer":0,
			"byteLength":2816,
			"byteOffset":8448,
			"target":34962
		},
		{
			"buffer":0,
			"byteLength":1176,
			"byteOffset":11264,
			"target":34963
		},
		{
			"buffer":0,
			"byteLength":1824,
			"byteOffset":12440,
			"target":34962
		},
		{
			"buffer":0,
			"byteLength":1824,
			"byteOffset":14264,
			"target":34962
		},
		{
			"buffer":0,
			"byteLength":1216,
			"byteOffset":16088,
			"target":34962
		},
		{
			"buffer":0,
			"byteLength":468,
			"byteOffset":17304,
			"target":34963
		}
	],
	"samplers":[
		{
			"magFilter":9729,
			"minFilter":9987
		},
		{
			"magFilter":9728,
			"minFilter":9984
		}
	],
	"buffers":[
		{
			"byteLength":17772,
			"uri":"Enemy2_Model-386174ec431184793c7f6deb4287a051.bin"
		}
	]
}
