{
	"asset":{
		"generator":"Khronos glTF Blender I/O v3.6.27",
		"version":"2.0"
	},
	"scene":0,
	"scenes":[
		{
			"name":"Scene",
			"nodes":[
				0,
				1
			]
		}
	],
	"nodes":[
		{
			"mesh":0,
			"name":"Core"
		},
		{
			"mesh":1,
			"name":"Ring"
		}
	],
	"meshes":[
		{
			"name":"Sphere",
			"primitives":[
				{
					"attributes":{
						"POSITION":0,
						"NORMAL":1,
						"TEXCOORD_0":2,
						"TANGENT":3
					},
					"indices":4
				}
			]
		},
		{
			"name":"Circle",
			"primitives":[
				{
					"attributes":{
						"POSITION":5,
						"NORMAL":6,
						"TEXCOORD_0":7,
						"TANGENT":8
					},
					"indices":9
				}
			]
		}
	],
	"accessors":[
		{
			"bufferView":0,
			"componentType":5126,
			"count":1350,
			"max":[
				1.2475335597991943,
				1.25,
				1.2401435375213623
			],
			"min":[
				-1.2475335597991943,
				-1.25,
				-1.25
			],
			"type":"VEC3"
		},
		{
			"bufferView":1,
			"componentType":5126,
			"count":1350,
			"type":"VEC3"
		},
		{
			"bufferView":2,
			"componentType":5126,
			"count":1350,
			"type":"VEC2"
		},
		{
			"bufferView":3,
			"componentType":5126,
			"count":1350,
			"type":"VEC4"
		},
		{
			"bufferView":4,
			"componentType":5123,
			"count":1950,
			"type":"SCALAR"
		},
		{
			"bufferView":5,
			"componentType":5126,
			"count":616,
			"max":[
				1.4499138593673706,
				0.2719571888446808,
				1.4499138593673706
			],
			"min":[
				-1.4499138593673706,
				-0.2523866593837738,
				-1.9372403621673584
			],
			"type":"VEC3"
		},
		{
			"bufferView":6,
			"componentType":5126,
			"count":616,
			"type":"VEC3"
		},
		{
			"bufferView":7,
			"componentType":5126,
			"count":616,
			"type":"VEC2"
		},
		{
			"bufferView":8,
			"componentType":5126,
			"count":616,
			"type":"VEC4"
		},
		{
			"bufferView":9,
			"componentType":5123,
			"count":960,
			"type":"SCALAR"
		}
	],
	"bufferViews":[
		{
			"buffer":0,
			"byteLength":16200,
			"byteOffset":0,
			"target":34962
		},
		{
			"buffer":0,
			"byteLength":16200,
			"byteOffset":16200,
			"target":34962
		},
		{
			"buffer":0,
			"byteLength":10800,
			"byteOffset":32400,
			"target":34962
		},
		{
			"buffer":0,
			"byteLength":21600,
			"byteOffset":43200,
			"target":34962
		},
		{
			"buffer":0,
			"byteLength":3900,
			"byteOffset":64800,
			"target":34963
		},
		{
			"buffer":0,
			"byteLength":7392,
			"byteOffset":68700,
			"target":34962
		},
		{
			"buffer":0,
			"byteLength":7392,
			"byteOffset":76092,
			"target":34962
		},
		{
			"buffer":0,
			"byteLength":4928,
			"byteOffset":83484,
			"target":34962
		},
		{
			"buffer":0,
			"byteLength":9856,
			"byteOffset":88412,
			"target":34962
		},
		{
			"buffer":0,
			"byteLength":1920,
			"byteOffset":98268,
			"target":34963
		}
	],
	"buffers":[
		{
			"byteLength":100188,
			"uri":"Enemy1-4227bd33bb736ee494e0b0865e54cf6d.bin"
		}
	]
}
