{
	"asset":{
		"generator":"Khronos glTF Blender I/O v3.6.27",
		"version":"2.0"
	},
	"scene":0,
	"scenes":[
		{
			"extras":{
				"sb_state":{
					"action_preview":null,
					"action_preview_enabled":0
				}
			},
			"name":"Scene",
			"nodes":[
				0
			]
		}
	],
	"nodes":[
		{
			"mesh":0,
			"name":"Meteroid",
			"scale":[
				4.92073917388916,
				4.92073917388916,
				4.92073917388916
			]
		}
	],
	"meshes":[
		{
			"name":"Sphere.001",
			"primitives":[
				{
					"attributes":{
						"POSITION":0,
						"NORMAL":1,
						"TEXCOORD_0":2,
						"TANGENT":3
					},
					"indices":4
				}
			]
		}
	],
	"accessors":[
		{
			"bufferView":0,
			"componentType":5126,
			"count":612,
			"max":[
				1.037395715713501,
				1.3258781433105469,
				1.5122768878936768
			],
			"min":[
				-1.19767427444458,
				-1.2685402631759644,
				-1.3932703733444214
			],
			"type":"VEC3"
		},
		{
			"bufferView":1,
			"componentType":5126,
			"count":612,
			"type":"VEC3"
		},
		{
			"bufferView":2,
			"componentType":5126,
			"count":612,
			"type":"VEC2"
		},
		{
			"bufferView":3,
			"componentType":5126,
			"count":612,
			"type":"VEC4"
		},
		{
			"bufferView":4,
			"componentType":5123,
			"count":2880,
			"type":"SCALAR"
		}
	],
	"bufferViews":[
		{
			"buffer":0,
			"byteLength":7344,
			"byteOffset":0,
			"target":34962
		},
		{
			"buffer":0,
			"byteLength":7344,
			"byteOffset":7344,
			"target":34962
		},
		{
			"buffer":0,
			"byteLength":4896,
			"byteOffset":14688,
			"target":34962
		},
		{
			"buffer":0,
			"byteLength":9792,
			"byteOffset":19584,
			"target":34962
		},
		{
			"buffer":0,
			"byteLength":5760,
			"byteOffset":29376,
			"target":34963
		}
	],
	"buffers":[
		{
			"byteLength":35136,
			"uri":"Meteroid-e5e3969fe7293283c0d865fd3f8bf409.bin"
		}
	]
}
